<svg width="151" height="32" viewBox="0 0 151 32" fill="none" xmlns="http://www.w3.org/2000/svg">
<path d="M37.9545 10.196V7.54545H51.8807V10.196H46.4858V25H43.3494V10.196H37.9545ZM54.285 25V11.9091H57.3702V25H54.285ZM55.8361 10.0511C55.3475 10.0511 54.927 9.8892 54.5747 9.56534C54.2225 9.23579 54.0463 8.84091 54.0463 8.38068C54.0463 7.91477 54.2225 7.51989 54.5747 7.19602C54.927 6.86648 55.3475 6.7017 55.8361 6.7017C56.3304 6.7017 56.7509 6.86648 57.0975 7.19602C57.4498 7.51989 57.6259 7.91477 57.6259 8.38068C57.6259 8.84091 57.4498 9.23579 57.0975 9.56534C56.7509 9.8892 56.3304 10.0511 55.8361 10.0511ZM60.3988 25V11.9091H63.3477V14.1335H63.5011C63.7738 13.3835 64.2255 12.7983 64.8562 12.3778C65.4869 11.9517 66.2397 11.7386 67.1147 11.7386C68.0011 11.7386 68.7482 11.9545 69.3562 12.3864C69.9698 12.8125 70.4016 13.3949 70.6516 14.1335H70.788C71.0778 13.4062 71.5664 12.8267 72.2539 12.3949C72.9471 11.9574 73.7681 11.7386 74.717 11.7386C75.9215 11.7386 76.9045 12.1193 77.6658 12.8807C78.4272 13.642 78.8079 14.7528 78.8079 16.2131V25H75.7141V16.6903C75.7141 15.8778 75.4982 15.2841 75.0664 14.9091C74.6346 14.5284 74.1062 14.3381 73.4812 14.3381C72.7369 14.3381 72.1545 14.571 71.734 15.0369C71.3192 15.4972 71.1119 16.0966 71.1119 16.8352V25H68.0863V16.5625C68.0863 15.8864 67.8817 15.3466 67.4727 14.9432C67.0692 14.5398 66.5408 14.3381 65.8874 14.3381C65.4442 14.3381 65.0408 14.4517 64.6772 14.679C64.3136 14.9006 64.0238 15.2159 63.8079 15.625C63.592 16.0284 63.484 16.5 63.484 17.0398V25H60.3988ZM87.5893 25.2557C86.2768 25.2557 85.1433 24.983 84.1887 24.4375C83.2399 23.8864 82.5098 23.108 81.9984 22.1023C81.487 21.0909 81.2314 19.9006 81.2314 18.5312C81.2314 17.1847 81.487 16.0028 81.9984 14.9858C82.5154 13.9631 83.237 13.1676 84.1632 12.5994C85.0893 12.0256 86.1774 11.7386 87.4274 11.7386C88.2342 11.7386 88.9956 11.8693 89.7115 12.1307C90.4331 12.3864 91.0694 12.7841 91.6206 13.3239C92.1774 13.8636 92.6149 14.5511 92.9331 15.3864C93.2512 16.2159 93.4103 17.2045 93.4103 18.3523V19.2983H82.6802V17.2188H90.4529C90.4473 16.6278 90.3194 16.1023 90.0694 15.642C89.8194 15.1761 89.47 14.8097 89.0211 14.5426C88.5779 14.2756 88.0609 14.142 87.47 14.142C86.8393 14.142 86.2853 14.2955 85.8081 14.6023C85.3308 14.9034 84.9586 15.3011 84.6916 15.7955C84.4302 16.2841 84.2967 16.821 84.291 17.4062V19.2216C84.291 19.983 84.4302 20.6364 84.7086 21.1818C84.987 21.7216 85.3762 22.1364 85.8762 22.4261C86.3762 22.7102 86.9615 22.8523 87.6319 22.8523C88.0808 22.8523 88.487 22.7898 88.8507 22.6648C89.2143 22.5341 89.5296 22.3438 89.7967 22.0938C90.0637 21.8438 90.2654 21.5341 90.4018 21.1648L93.2825 21.4886C93.1007 22.25 92.7541 22.9148 92.2427 23.483C91.737 24.0455 91.0893 24.483 90.2995 24.7955C89.5098 25.1023 88.6064 25.2557 87.5893 25.2557ZM96.0128 25V7.54545H99.098V14.0739H99.2258C99.3849 13.7557 99.6094 13.4176 99.8991 13.0597C100.189 12.696 100.581 12.3864 101.075 12.1307C101.57 11.8693 102.2 11.7386 102.967 11.7386C103.979 11.7386 104.891 11.9972 105.703 12.5142C106.521 13.0256 107.169 13.7841 107.646 14.7898C108.129 15.7898 108.371 17.017 108.371 18.4716C108.371 19.9091 108.135 21.1307 107.663 22.1364C107.192 23.142 106.55 23.9091 105.737 24.4375C104.925 24.9659 104.004 25.2301 102.976 25.2301C102.226 25.2301 101.604 25.1051 101.109 24.8551C100.615 24.6051 100.217 24.304 99.9162 23.9517C99.6207 23.5937 99.3906 23.2557 99.2258 22.9375H99.0469V25H96.0128ZM99.0383 18.4545C99.0383 19.3011 99.1577 20.0426 99.3963 20.679C99.6406 21.3153 99.9901 21.8125 100.445 22.1705C100.905 22.5227 101.462 22.6989 102.115 22.6989C102.797 22.6989 103.368 22.517 103.828 22.1534C104.288 21.7841 104.635 21.2812 104.868 20.6449C105.107 20.0028 105.226 19.2727 105.226 18.4545C105.226 17.642 105.109 16.9205 104.876 16.2898C104.643 15.6591 104.297 15.1648 103.837 14.8068C103.376 14.4489 102.803 14.2699 102.115 14.2699C101.456 14.2699 100.896 14.4432 100.436 14.7898C99.9758 15.1364 99.6264 15.6222 99.3878 16.2472C99.1548 16.8722 99.0383 17.608 99.0383 18.4545ZM116.56 25.2557C115.281 25.2557 114.173 24.9744 113.236 24.4119C112.298 23.8494 111.571 23.0625 111.054 22.0511C110.543 21.0398 110.287 19.858 110.287 18.5057C110.287 17.1534 110.543 15.9687 111.054 14.9517C111.571 13.9347 112.298 13.1449 113.236 12.5824C114.173 12.0199 115.281 11.7386 116.56 11.7386C117.838 11.7386 118.946 12.0199 119.884 12.5824C120.821 13.1449 121.546 13.9347 122.057 14.9517C122.574 15.9687 122.833 17.1534 122.833 18.5057C122.833 19.858 122.574 21.0398 122.057 22.0511C121.546 23.0625 120.821 23.8494 119.884 24.4119C118.946 24.9744 117.838 25.2557 116.56 25.2557ZM116.577 22.7841C117.27 22.7841 117.85 22.5937 118.316 22.2131C118.781 21.8267 119.128 21.3097 119.355 20.6619C119.588 20.0142 119.705 19.2926 119.705 18.4972C119.705 17.696 119.588 16.9716 119.355 16.3239C119.128 15.6705 118.781 15.1506 118.316 14.7642C117.85 14.3778 117.27 14.1847 116.577 14.1847C115.867 14.1847 115.276 14.3778 114.804 14.7642C114.338 15.1506 113.989 15.6705 113.756 16.3239C113.529 16.9716 113.415 17.696 113.415 18.4972C113.415 19.2926 113.529 20.0142 113.756 20.6619C113.989 21.3097 114.338 21.8267 114.804 22.2131C115.276 22.5937 115.867 22.7841 116.577 22.7841ZM127.338 11.9091L129.98 16.7415L132.664 11.9091H135.929L131.983 18.4545L135.997 25H132.75L129.98 20.2869L127.235 25H123.963L127.951 18.4545L124.065 11.9091H127.338ZM140.694 11.9091L143.336 16.7415L146.02 11.9091H149.285L145.339 18.4545L149.353 25H146.106L143.336 20.2869L140.591 25H137.319L141.307 18.4545L137.421 11.9091H140.694Z" fill="#0F172A"/>
<rect x="1" y="5" width="22" height="22" stroke="#0F172A" stroke-width="2"/>
</svg>
